<?xml version="1.0" encoding="UTF-8"?>
<!DOCTYPE svg PUBLIC "-//W3C//DTD SVG 1.1//EN" "http://www.w3.org/Graphics/SVG/1.1/DTD/svg11.dtd">
<!-- Creator: CorelDRAW -->
<svg xmlns="http://www.w3.org/2000/svg" xml:space="preserve" width="895px" height="244px" version="1.1" style="shape-rendering:geometricPrecision; text-rendering:geometricPrecision; image-rendering:optimizeQuality; fill-rule:evenodd; clip-rule:evenodd"
viewBox="0 0 347.5 94.87"
 xmlns:xlink="http://www.w3.org/1999/xlink"
 xmlns:xodm="http://www.corel.com/coreldraw/odm/2003">
 <defs>
  <style type="text/css">
   <![CDATA[
    .str0 {stroke:black;stroke-width:0.35;stroke-miterlimit:22.9256}
    .fil3 {fill:none;fill-rule:nonzero}
    .fil0 {fill:white}
    .fil2 {fill:black;fill-rule:nonzero}
    .fil1 {fill:black;fill-rule:nonzero}
   ]]>
  </style>
 </defs>
 <g id="Capa_x0020_1">
  <metadata id="CorelCorpID_0Corel-Layer"/>
  <g>
   <path class="fil0" d="M40.46 3.25l287.18 0c11.52,0 18.75,9.43 16.06,20.95l-10.83 46.47c-2.68,11.52 -14.3,20.95 -25.82,20.95l-287.18 0c-11.52,0 -18.75,-9.43 -16.07,-20.95l10.83 -46.47c2.69,-11.52 14.31,-20.95 25.83,-20.95z"/>
   <path id="_1" class="fil1" d="M327.64 6.5l-287.18 0 0 -6.5 287.18 0 0 0 0 6.5zm19.23 18.44l-6.33 -1.48 0 0 0.19 -0.92 0.14 -0.9 0.1 -0.88 0.04 -0.86 0 -0.84 -0.04 -0.82 -0.09 -0.79 -0.12 -0.77 -0.17 -0.75 -0.2 -0.73 -0.24 -0.7 -0.28 -0.67 -0.31 -0.65 -0.35 -0.63 -0.38 -0.6 -0.41 -0.57 -0.44 -0.54 -0.48 -0.52 -0.5 -0.49 -0.54 -0.45 -0.57 -0.44 -0.6 -0.39 -0.63 -0.37 -0.66 -0.34 -0.69 -0.3 -0.72 -0.26 -0.75 -0.23 -0.78 -0.19 -0.81 -0.16 -0.84 -0.11 -0.87 -0.07 -0.9 -0.02 0 -6.5 1.23 0.03 1.21 0.1 1.19 0.15 1.16 0.22 1.13 0.28 1.11 0.34 1.06 0.39 1.04 0.45 1 0.51 0.96 0.56 0.92 0.61 0.88 0.67 0.83 0.71 0.79 0.76 0.74 0.8 0.69 0.84 0.63 0.89 0.59 0.92 0.53 0.96 0.48 1 0.42 1.02 0.36 1.06 0.3 1.08 0.25 1.1 0.18 1.13 0.12 1.15 0.06 1.17 0 1.18 -0.06 1.2 -0.13 1.21 -0.19 1.22 -0.25 1.23 0 0zm-17.16 44.99l10.83 -46.47 6.33 1.48 -10.83 46.47 -6.33 -1.48zm-22.66 24.94l0 -6.5 0 0 0.91 -0.03 0.92 -0.06 0.92 -0.12 0.93 -0.16 0.92 -0.2 0.92 -0.25 0.91 -0.29 0.91 -0.33 0.9 -0.37 0.9 -0.41 0.88 -0.44 0.86 -0.49 0.86 -0.52 0.83 -0.55 0.81 -0.59 0.8 -0.62 0.77 -0.65 0.75 -0.68 0.72 -0.7 0.69 -0.74 0.66 -0.75 0.63 -0.78 0.6 -0.8 0.56 -0.82 0.53 -0.84 0.49 -0.86 0.45 -0.86 0.41 -0.89 0.37 -0.89 0.33 -0.91 0.28 -0.91 0.24 -0.93 6.33 1.48 -0.32 1.22 -0.37 1.21 -0.43 1.19 -0.48 1.16 -0.53 1.14 -0.58 1.11 -0.62 1.09 -0.67 1.06 -0.71 1.04 -0.75 1 -0.79 0.98 -0.83 0.94 -0.86 0.91 -0.9 0.88 -0.92 0.84 -0.96 0.81 -0.99 0.77 -1.01 0.73 -1.04 0.69 -1.07 0.66 -1.09 0.6 -1.11 0.57 -1.13 0.52 -1.14 0.47 -1.17 0.42 -1.18 0.37 -1.2 0.32 -1.21 0.27 -1.22 0.21 -1.23 0.15 -1.24 0.1 -1.24 0.03 0 0zm-287.18 -6.5l287.18 0 0 6.5 -287.18 0 0 0 0 -6.5zm-19.23 -18.44l6.32 1.48 0 0 -0.19 0.92 -0.14 0.9 -0.09 0.88 -0.05 0.86 0 0.84 0.05 0.82 0.08 0.79 0.13 0.77 0.16 0.75 0.21 0.73 0.24 0.7 0.27 0.67 0.32 0.65 0.34 0.63 0.38 0.6 0.41 0.57 0.45 0.54 0.47 0.52 0.51 0.48 0.54 0.46 0.56 0.43 0.6 0.4 0.63 0.37 0.66 0.34 0.69 0.3 0.72 0.26 0.75 0.23 0.78 0.19 0.81 0.16 0.84 0.11 0.87 0.06 0.91 0.03 0 6.5 -1.24 -0.03 -1.21 -0.1 -1.19 -0.15 -1.16 -0.22 -1.13 -0.28 -1.1 -0.34 -1.07 -0.39 -1.04 -0.45 -0.99 -0.51 -0.96 -0.56 -0.92 -0.61 -0.88 -0.67 -0.83 -0.71 -0.79 -0.76 -0.74 -0.8 -0.69 -0.85 -0.64 -0.88 -0.58 -0.93 -0.54 -0.95 -0.47 -1 -0.42 -1.02 -0.36 -1.06 -0.31 -1.08 -0.24 -1.1 -0.19 -1.13 -0.12 -1.15 -0.06 -1.17 0 -1.18 0.06 -1.2 0.13 -1.21 0.19 -1.22 0.26 -1.23 0 0zm17.15 -44.99l-10.83 46.47 -6.32 -1.48 10.83 -46.47 0 0 6.32 1.48zm22.67 -24.94l0 6.5 0 0 -0.92 0.02 -0.92 0.07 -0.92 0.12 -0.92 0.16 -0.92 0.2 -0.92 0.25 -0.92 0.29 -0.91 0.33 -0.9 0.37 -0.89 0.41 -0.88 0.44 -0.87 0.49 -0.85 0.52 -0.83 0.55 -0.82 0.59 -0.79 0.62 -0.77 0.65 -0.75 0.68 -0.72 0.7 -0.69 0.74 -0.67 0.75 -0.63 0.78 -0.59 0.8 -0.57 0.82 -0.52 0.84 -0.49 0.85 -0.46 0.87 -0.41 0.89 -0.37 0.89 -0.32 0.91 -0.29 0.91 -0.24 0.93 -6.32 -1.48 0.31 -1.23 0.38 -1.2 0.43 -1.19 0.48 -1.16 0.53 -1.14 0.57 -1.11 0.63 -1.09 0.67 -1.06 0.71 -1.04 0.75 -1 0.79 -0.98 0.82 -0.94 0.87 -0.91 0.89 -0.88 0.93 -0.84 0.96 -0.81 0.98 -0.77 1.02 -0.73 1.04 -0.7 1.06 -0.65 1.09 -0.6 1.11 -0.57 1.13 -0.52 1.15 -0.47 1.17 -0.42 1.18 -0.37 1.2 -0.32 1.21 -0.27 1.22 -0.21 1.23 -0.16 1.23 -0.09 1.25 -0.03 0 0z"/>
  </g>
  <g>
   <path class="fil2" d="M96.12 67.19l-6.03 -11.5c-0.6,-1.14 -1.18,-2.09 -1.74,-2.85 -0.55,-0.78 -1.14,-1.39 -1.73,-1.85 -0.59,-0.44 -1.23,-0.78 -1.91,-0.97 -0.68,-0.2 -1.44,-0.29 -2.28,-0.29l-4.41 0 0 17.46 -3.72 0 0 -40.09 11.54 0c1.51,0 2.97,0.22 4.38,0.67 1.4,0.45 2.66,1.11 3.75,1.99 1.1,0.87 1.99,1.97 2.65,3.29 0.66,1.33 0.99,2.86 0.99,4.61 0,1.41 -0.21,2.72 -0.64,3.91 -0.43,1.19 -1.04,2.25 -1.83,3.17 -0.79,0.92 -1.75,1.7 -2.88,2.34 -1.13,0.65 -2.4,1.13 -3.81,1.44l0 0.12c0.54,0.22 1.03,0.51 1.48,0.87 0.44,0.35 0.87,0.78 1.29,1.28 0.42,0.5 0.83,1.08 1.24,1.73 0.42,0.66 0.84,1.41 1.28,2.25l6.73 12.42 -4.35 0zm-18.1 -36.65l0 15.81 6.65 0c1.34,0 2.56,-0.19 3.68,-0.59 1.12,-0.39 2.07,-0.95 2.86,-1.68 0.8,-0.71 1.41,-1.59 1.85,-2.61 0.44,-1.02 0.66,-2.18 0.66,-3.46 0,-2.33 -0.75,-4.15 -2.25,-5.48 -1.5,-1.32 -3.66,-1.99 -6.5,-1.99l-6.95 0z"/>
   <path id="_1_0" class="fil3 str0" d="M96.12 67.19l-6.03 -11.5c-0.6,-1.14 -1.18,-2.09 -1.74,-2.85 -0.55,-0.78 -1.14,-1.39 -1.73,-1.85 -0.59,-0.44 -1.23,-0.78 -1.91,-0.97 -0.68,-0.2 -1.44,-0.29 -2.28,-0.29l-4.41 0 0 17.46 -3.72 0 0 -40.09 11.54 0c1.51,0 2.97,0.22 4.38,0.67 1.4,0.45 2.66,1.11 3.75,1.99 1.1,0.87 1.99,1.97 2.65,3.29 0.66,1.33 0.99,2.86 0.99,4.61 0,1.41 -0.21,2.72 -0.64,3.91 -0.43,1.19 -1.04,2.25 -1.83,3.17 -0.79,0.92 -1.75,1.7 -2.88,2.34 -1.13,0.65 -2.4,1.13 -3.81,1.44l0 0.12c0.54,0.22 1.03,0.51 1.48,0.87 0.44,0.35 0.87,0.78 1.29,1.28 0.42,0.5 0.83,1.08 1.24,1.73 0.42,0.66 0.84,1.41 1.28,2.25l6.73 12.42 -4.35 0zm-18.1 -36.65l0 15.81 6.65 0c1.34,0 2.56,-0.19 3.68,-0.59 1.12,-0.39 2.07,-0.95 2.86,-1.68 0.8,-0.71 1.41,-1.59 1.85,-2.61 0.44,-1.02 0.66,-2.18 0.66,-3.46 0,-2.33 -0.75,-4.15 -2.25,-5.48 -1.5,-1.32 -3.66,-1.99 -6.5,-1.99l-6.95 0z"/>
  </g>
  <g>
   <path id="_2" class="fil2" d="M108.41 67.77c-0.75,0 -1.39,-0.26 -1.9,-0.79 -0.53,-0.51 -0.79,-1.15 -0.79,-1.9 0,-0.75 0.26,-1.4 0.77,-1.91 0.51,-0.53 1.15,-0.79 1.92,-0.79 0.37,0 0.71,0.07 1.04,0.21 0.32,0.15 0.61,0.33 0.85,0.56 0.24,0.23 0.43,0.51 0.59,0.85 0.14,0.34 0.22,0.7 0.22,1.08 0,0.38 -0.08,0.73 -0.22,1.05 -0.16,0.33 -0.35,0.61 -0.59,0.85 -0.24,0.24 -0.53,0.43 -0.85,0.58 -0.33,0.14 -0.67,0.21 -1.04,0.21z"/>
   <path id="_3" class="fil3 str0" d="M108.41 67.77c-0.75,0 -1.39,-0.26 -1.9,-0.79 -0.53,-0.51 -0.79,-1.15 -0.79,-1.9 0,-0.75 0.26,-1.4 0.77,-1.91 0.51,-0.53 1.15,-0.79 1.92,-0.79 0.37,0 0.71,0.07 1.04,0.21 0.32,0.15 0.61,0.33 0.85,0.56 0.24,0.23 0.43,0.51 0.59,0.85 0.14,0.34 0.22,0.7 0.22,1.08 0,0.38 -0.08,0.73 -0.22,1.05 -0.16,0.33 -0.35,0.61 -0.59,0.85 -0.24,0.24 -0.53,0.43 -0.85,0.58 -0.33,0.14 -0.67,0.21 -1.04,0.21z"/>
  </g>
  <g>
   <path id="_4" class="fil2" d="M154.44 67.19l-3.88 0 -8.58 -29.71c-0.21,-0.72 -0.38,-1.39 -0.5,-2.04 -0.11,-0.66 -0.19,-1.29 -0.21,-1.9l-0.11 0c-0.07,1.08 -0.34,2.37 -0.81,3.88l-8.88 29.77 -3.89 0 -11.82 -40.09 4.13 0 8.84 31.45c0.2,0.69 0.36,1.35 0.48,1.97 0.13,0.63 0.22,1.23 0.3,1.81l0.1 0c0.12,-0.84 0.42,-2.1 0.93,-3.78l9.39 -31.45 2.93 0 8.81 31.57c0.17,0.63 0.32,1.25 0.45,1.86 0.13,0.6 0.23,1.19 0.31,1.77l0.11 0c0.03,-0.38 0.11,-0.8 0.22,-1.25 0.12,-0.47 0.24,-1 0.39,-1.57l8.78 -32.38 4.05 0 -11.54 40.09z"/>
   <path id="_5" class="fil3 str0" d="M154.44 67.19l-3.88 0 -8.58 -29.71c-0.21,-0.72 -0.38,-1.39 -0.5,-2.04 -0.11,-0.66 -0.19,-1.29 -0.21,-1.9l-0.11 0c-0.07,1.08 -0.34,2.37 -0.81,3.88l-8.88 29.77 -3.89 0 -11.82 -40.09 4.13 0 8.84 31.45c0.2,0.69 0.36,1.35 0.48,1.97 0.13,0.63 0.22,1.23 0.3,1.81l0.1 0c0.12,-0.84 0.42,-2.1 0.93,-3.78l9.39 -31.45 2.93 0 8.81 31.57c0.17,0.63 0.32,1.25 0.45,1.86 0.13,0.6 0.23,1.19 0.31,1.77l0.11 0c0.03,-0.38 0.11,-0.8 0.22,-1.25 0.12,-0.47 0.24,-1 0.39,-1.57l8.78 -32.38 4.05 0 -11.54 40.09z"/>
  </g>
  <g>
   <path id="_6" class="fil2" d="M194.07 67.19l-6.03 -11.5c-0.6,-1.14 -1.17,-2.09 -1.74,-2.85 -0.55,-0.78 -1.13,-1.39 -1.72,-1.85 -0.6,-0.44 -1.23,-0.78 -1.91,-0.97 -0.69,-0.2 -1.44,-0.29 -2.28,-0.29l-4.41 0 0 17.46 -3.73 0 0 -40.09 11.54 0c1.51,0 2.97,0.22 4.38,0.67 1.41,0.45 2.66,1.11 3.76,1.99 1.09,0.87 1.98,1.97 2.64,3.29 0.66,1.33 0.99,2.86 0.99,4.61 0,1.41 -0.21,2.72 -0.64,3.91 -0.43,1.19 -1.04,2.25 -1.83,3.17 -0.79,0.92 -1.75,1.7 -2.87,2.34 -1.14,0.65 -2.41,1.13 -3.82,1.44l0 0.12c0.54,0.22 1.03,0.51 1.48,0.87 0.45,0.35 0.88,0.78 1.3,1.28 0.42,0.5 0.83,1.08 1.24,1.73 0.41,0.66 0.84,1.41 1.28,2.25l6.73 12.42 -4.36 0zm-18.09 -36.65l0 15.81 6.64 0c1.35,0 2.57,-0.19 3.68,-0.59 1.12,-0.39 2.08,-0.95 2.87,-1.68 0.79,-0.71 1.4,-1.59 1.84,-2.61 0.44,-1.02 0.66,-2.18 0.66,-3.46 0,-2.33 -0.75,-4.15 -2.24,-5.48 -1.5,-1.32 -3.67,-1.99 -6.5,-1.99l-6.95 0z"/>
   <path id="_7" class="fil3 str0" d="M194.07 67.19l-6.03 -11.5c-0.6,-1.14 -1.17,-2.09 -1.74,-2.85 -0.55,-0.78 -1.13,-1.39 -1.72,-1.85 -0.6,-0.44 -1.23,-0.78 -1.91,-0.97 -0.69,-0.2 -1.44,-0.29 -2.28,-0.29l-4.41 0 0 17.46 -3.73 0 0 -40.09 11.54 0c1.51,0 2.97,0.22 4.38,0.67 1.41,0.45 2.66,1.11 3.76,1.99 1.09,0.87 1.98,1.97 2.64,3.29 0.66,1.33 0.99,2.86 0.99,4.61 0,1.41 -0.21,2.72 -0.64,3.91 -0.43,1.19 -1.04,2.25 -1.83,3.17 -0.79,0.92 -1.75,1.7 -2.87,2.34 -1.14,0.65 -2.41,1.13 -3.82,1.44l0 0.12c0.54,0.22 1.03,0.51 1.48,0.87 0.45,0.35 0.88,0.78 1.3,1.28 0.42,0.5 0.83,1.08 1.24,1.73 0.41,0.66 0.84,1.41 1.28,2.25l6.73 12.42 -4.36 0zm-18.09 -36.65l0 15.81 6.64 0c1.35,0 2.57,-0.19 3.68,-0.59 1.12,-0.39 2.08,-0.95 2.87,-1.68 0.79,-0.71 1.4,-1.59 1.84,-2.61 0.44,-1.02 0.66,-2.18 0.66,-3.46 0,-2.33 -0.75,-4.15 -2.24,-5.48 -1.5,-1.32 -3.67,-1.99 -6.5,-1.99l-6.95 0z"/>
  </g>
  <g>
   <polygon id="_8" class="fil2" points="205.28,67.19 205.28,27.1 224.83,27.1 224.83,30.54 209,30.54 209,45.2 223.66,45.2 223.66,48.58 209,48.58 209,63.81 225.73,63.81 225.73,67.19 "/>
   <polygon id="_9" class="fil3 str0" points="205.28,67.19 205.28,27.1 224.83,27.1 224.83,30.54 209,30.54 209,45.2 223.66,45.2 223.66,48.58 209,48.58 209,63.81 225.73,63.81 225.73,67.19 "/>
  </g>
  <g>
   <path id="_10" class="fil2" d="M269.54 67.19l0 -27.68c0,-1.41 0.11,-3.69 0.33,-6.84l-0.11 0c-0.26,0.84 -0.5,1.56 -0.71,2.17 -0.22,0.62 -0.42,1.12 -0.6,1.51l-13.98 30.84 -1.6 0 -14 -30.64c-0.41,-0.93 -0.83,-2.24 -1.26,-3.94l-0.11 0c0.07,0.86 0.13,1.83 0.16,2.94 0.03,1.1 0.04,2.32 0.04,3.66l0 27.98 -3.61 0 0 -40.09 4.39 0 13.6 30.14c0.28,0.64 0.55,1.29 0.82,1.94 0.28,0.66 0.53,1.37 0.75,2.11l0.17 0c0.26,-0.74 0.5,-1.42 0.7,-2.04 0.22,-0.61 0.48,-1.28 0.81,-1.98l13.71 -30.17 4.16 0 0 40.09 -3.66 0z"/>
   <path id="_11" class="fil3 str0" d="M269.54 67.19l0 -27.68c0,-1.41 0.11,-3.69 0.33,-6.84l-0.11 0c-0.26,0.84 -0.5,1.56 -0.71,2.17 -0.22,0.62 -0.42,1.12 -0.6,1.51l-13.98 30.84 -1.6 0 -14 -30.64c-0.41,-0.93 -0.83,-2.24 -1.26,-3.94l-0.11 0c0.07,0.86 0.13,1.83 0.16,2.94 0.03,1.1 0.04,2.32 0.04,3.66l0 27.98 -3.61 0 0 -40.09 4.39 0 13.6 30.14c0.28,0.64 0.55,1.29 0.82,1.94 0.28,0.66 0.53,1.37 0.75,2.11l0.17 0c0.26,-0.74 0.5,-1.42 0.7,-2.04 0.22,-0.61 0.48,-1.28 0.81,-1.98l13.71 -30.17 4.16 0 0 40.09 -3.66 0z"/>
  </g>
 </g>
</svg>
